<svg width="28" height="22" viewBox="0 0 28 22" fill="none" xmlns="http://www.w3.org/2000/svg">
<path fill-rule="evenodd" clip-rule="evenodd" d="M10.0729 0.401263C9.59795 0.571936 8.20036 1.74836 7.67381 2.42054C7.52092 2.61591 7.26545 2.65929 6.26944 2.65929C3.40473 2.65929 1.83226 3.47555 0.912285 5.44012L0.521484 6.27465V12.2093C0.521484 17.4902 0.547473 18.2079 0.757872 18.7253C1.33557 20.1466 2.4166 21.1454 3.82345 21.5577C4.84821 21.8579 23.1513 21.8579 24.176 21.5577C25.1719 21.2658 26.0658 20.6275 26.6212 19.8118C27.4826 18.5465 27.478 18.5872 27.478 12.1411V6.27465L27.0764 5.41638C26.5904 4.37775 25.5037 3.33953 24.5454 2.99859C24.1228 2.84825 23.2845 2.73801 22.2249 2.6934L20.5661 2.62368L19.5549 1.65245C18.9987 1.1182 18.3767 0.588989 18.1725 0.476435C17.6338 0.17943 10.8648 0.116537 10.0729 0.401263ZM17.3979 1.84495C17.604 1.92231 18.2661 2.45956 18.8689 3.0387L19.965 4.09179L21.7862 4.1701C23.7635 4.2551 24.3361 4.42277 25.0482 5.12551C25.9111 5.9771 25.9006 5.8831 25.858 12.3977L25.8191 18.3254L25.3983 18.9168C25.1668 19.2421 24.7002 19.6617 24.3616 19.8493L23.7456 20.1904H13.9997H4.25393L3.63793 19.8493C3.29925 19.6617 2.83269 19.2421 2.60115 18.9168L2.18035 18.3254L2.1415 12.3977C2.09879 5.85854 2.08455 5.98256 2.97522 5.12319C3.71991 4.40462 4.22821 4.25537 6.22065 4.1701L8.04913 4.09179L9.05454 3.10978C10.537 1.66173 10.3823 1.70607 13.9562 1.70511C15.7299 1.7047 17.181 1.76364 17.3979 1.84495ZM12.3554 5.86796C8.99952 6.79785 6.98262 10.2039 7.84744 13.4808C8.15018 14.628 8.54679 15.3075 9.46386 16.2499C11.4025 18.2424 14.3864 18.7558 16.8513 17.5211C17.8388 17.0266 19.186 15.7328 19.6514 14.8325C20.7358 12.7348 20.5167 10.0836 19.105 8.22012C18.4172 7.31205 17.2736 6.44969 16.2481 6.06537C15.2063 5.67491 13.3851 5.58255 12.3554 5.86796ZM21.2787 6.18311C21.0111 6.47493 20.9786 7.03647 21.2158 7.27058C21.3177 7.37113 21.8162 7.43429 22.5076 7.43429C23.4229 7.43429 23.6764 7.38764 23.8624 7.18477C24.1664 6.85324 24.151 6.53837 23.8147 6.20644C23.4262 5.82307 21.624 5.80657 21.2787 6.18311ZM16.0024 7.62052C16.9663 8.05614 17.9343 9.01782 18.3968 9.9997C18.7023 10.6481 18.763 10.9688 18.763 11.9364C18.763 13.356 18.3689 14.3167 17.3905 15.2822C16.428 16.232 15.4465 16.6191 13.9997 16.6191C12.5529 16.6191 11.5714 16.232 10.609 15.2822C9.63058 14.3167 9.23646 13.356 9.23646 11.9364C9.23646 10.9688 9.29714 10.6481 9.60265 9.9997C10.216 8.69762 11.4895 7.6418 12.8571 7.30128C13.6976 7.09213 15.1616 7.2407 16.0024 7.62052Z" fill="#A0A4AB"/>
</svg>
