<svg width="143" height="122" viewBox="0 0 143 122" fill="none" xmlns="http://www.w3.org/2000/svg">
<g opacity="0.5">
<path d="M10.0436 103.096C11.7956 103.096 13.1156 102.232 13.1156 100.708C13.1156 97.552 8.17164 98.884 8.17164 96.736C8.17164 95.932 8.84364 95.428 9.98364 95.428C11.1116 95.428 11.8436 96.04 11.9396 96.988H12.9476C12.8276 95.476 11.6636 94.504 9.98364 94.504C8.30364 94.504 7.13964 95.404 7.13964 96.736C7.13964 99.736 12.0476 98.548 12.0476 100.708C12.0476 101.728 11.2076 102.172 10.0436 102.172C8.73564 102.172 7.96764 101.416 7.85964 100.252H6.85164C6.95964 101.968 8.15964 103.096 10.0436 103.096ZM19.8326 103V102.076H15.4646V99.124H18.9086V98.2H15.4646V95.524H19.7006V94.6H14.4446V103H19.8326ZM26.4615 103V102.076H22.2615V94.6H21.2415V103H26.4615ZM32.9108 103V102.076H28.5428V99.124H31.9868V98.2H28.5428V95.524H32.7788V94.6H27.5228V103H32.9108ZM37.6398 103.096C39.4998 103.096 40.9998 101.956 41.1798 100.384H40.1238C40.0038 101.416 38.9478 102.172 37.6398 102.172C35.8878 102.172 34.6518 100.984 34.6518 98.8C34.6518 96.616 35.8878 95.428 37.6398 95.428C38.9238 95.428 39.9678 96.184 40.1118 97.216H41.1918C40.9638 95.644 39.4638 94.504 37.6398 94.504C35.5518 94.504 33.5958 95.896 33.5958 98.8C33.5958 101.692 35.5398 103.096 37.6398 103.096ZM45.405 103V95.524H48.081V94.6H41.685V95.524H44.373V103H45.405ZM52.9881 103V99.568H55.1241C56.7921 99.568 57.8001 98.56 57.8001 97.084C57.8001 95.608 56.7921 94.6 55.1241 94.6H51.9681V103H52.9881ZM52.9881 95.512H55.1241C56.3121 95.512 56.7561 96.256 56.7561 97.084C56.7561 97.912 56.3121 98.656 55.1241 98.656H52.9881V95.512ZM63.5353 99.016C64.3273 98.644 64.8553 97.984 64.8553 97.06C64.8553 95.596 63.8353 94.6 62.1793 94.6H58.9993V103H60.0193V99.58H62.2993C63.0913 99.58 63.6193 100.156 63.6673 100.972L63.8113 103H64.7953L64.6513 100.912C64.5913 100.06 64.1953 99.376 63.5353 99.016ZM62.1793 95.512C63.3553 95.512 63.7993 96.232 63.7993 97.06C63.7993 97.888 63.3553 98.656 62.1793 98.656H60.0193V95.512H62.1793ZM72.1451 103V102.076H67.7771V99.124H71.2211V98.2H67.7771V95.524H72.0131V94.6H66.7571V103H72.1451ZM74.574 103V99.22H78.018V98.296H74.574V95.524H78.81V94.6H73.554V103H74.574ZM85.5983 103V102.076H81.2303V99.124H84.6743V98.2H81.2303V95.524H85.4663V94.6H80.2103V103H85.5983ZM91.5431 99.016C92.3351 98.644 92.8631 97.984 92.8631 97.06C92.8631 95.596 91.8431 94.6 90.1871 94.6H87.0071V103H88.0271V99.58H90.3071C91.0991 99.58 91.6271 100.156 91.6751 100.972L91.8191 103H92.8031L92.6591 100.912C92.5991 100.06 92.2031 99.376 91.5431 99.016ZM90.1871 95.512C91.3631 95.512 91.8071 96.232 91.8071 97.06C91.8071 97.888 91.3631 98.656 90.1871 98.656H88.0271V95.512H90.1871ZM100.153 103V102.076H95.785V99.124H99.229V98.2H95.785V95.524H100.021V94.6H94.765V103H100.153ZM104.034 103C106.386 103 108.222 101.476 108.222 98.8C108.222 96.124 106.386 94.6 104.034 94.6H101.562V103H104.034ZM102.582 95.524H104.01C105.642 95.524 107.154 96.484 107.154 98.8C107.154 101.116 105.642 102.076 104.01 102.076H102.582V95.524ZM115.472 103L117.56 96.172L119.636 103H120.692L123.26 94.6H122.216L120.128 101.452L118.016 94.6H117.104L114.98 101.452L112.916 94.6H111.848L114.452 103H115.472ZM130.397 103L127.049 94.6H126.125L122.777 103H123.845L124.721 100.732H128.465L129.329 103H130.397ZM126.593 95.86L128.105 99.82H125.069L126.593 95.86ZM133.534 103V99.484L136.51 94.6H135.346L133.03 98.5L130.702 94.6H129.538L132.514 99.484V103H133.534Z" fill="#1A1B1C"/>
<path d="M74 40L71 37L68 40L71 43L74 40Z" fill="#1A1B1C"/>
<g opacity="0.3">
<rect x="36.4141" y="40" width="48.9121" height="48.9121" transform="rotate(-45 36.4141 40)" stroke="#1A1B1C"/>
<rect x="31.7071" y="40" width="55.5685" height="55.5685" transform="rotate(-45 31.7071 40)" stroke="#1A1B1C"/>
<path d="M90.914 20.3377L98.0838 13.1678M90.914 60.1056L98.3512 67.5428M51.146 60.1056L43.4414 67.8102M51.146 20.3377L43.7088 12.9004" stroke="#1A1B1C"/>
</g>
</g>
</svg>
